<svg width="114" height="134" viewBox="0 0 114 134" fill="none" xmlns="http://www.w3.org/2000/svg">
<path d="M93.6261 28.8523L93.6251 28.8265L93.6302 27.4941C93.6326 27.0097 93.3983 26.5554 93.0027 26.2781L70.9574 10.2963L58.8003 1.45689L58.3134 1.10397C58.0429 0.906654 57.7212 0.813763 57.4021 0.824612L57.4065 4.35557C57.6232 4.35456 57.8113 4.37524 57.9853 4.52611L72.9872 15.4346L90.4895 28.1956C90.7013 28.3431 90.8363 28.5736 90.8631 28.8336C90.86 28.872 90.8563 28.9103 90.8563 28.9486C90.8563 29.0096 90.8617 29.0649 90.8688 29.1184L90.8529 29.1188L90.8475 30.7705C90.8664 31.3787 90.7122 31.5296 89.9338 31.6489H85.2257H82.7213C81.9107 31.6489 81.2513 32.3083 81.2513 33.1189V36.5279C81.251 36.5543 81.234 39.1756 81.2513 40.3205V41.8062C81.2513 41.9126 81.2659 42.0082 81.2788 42.0774C81.2961 43.1914 81.3134 44.5021 81.3093 45.7985C81.3076 46.2589 81.2991 46.7597 81.2903 47.2543L81.2862 47.5066C81.2808 47.77 81.2767 48.0331 81.273 48.2914L81.2669 48.7342C81.2571 49.4855 81.2445 50.2171 81.2072 50.9056C81.2035 50.9728 81.1981 51.0419 81.1923 51.1111L81.1879 51.1694C81.1859 51.1833 81.1849 51.1958 81.1845 51.207L81.1818 51.2328C81.1693 51.2965 81.1584 51.3586 81.1482 51.4179L81.1357 51.4847C81.1143 51.6 81.092 51.7193 81.0608 51.8349C81.054 51.859 81.0411 51.8973 81.0272 51.9376L81.015 51.9732C80.9984 52.0221 80.9838 52.0682 80.976 52.1007L80.9584 52.1424C80.9096 52.2445 80.8577 52.3431 80.8021 52.4428L80.7675 52.5096C80.7631 52.517 80.7587 52.5242 80.7543 52.5303C80.7435 52.5428 80.7333 52.5553 80.7234 52.5679C80.7211 52.5709 80.719 52.5743 80.7163 52.5774C80.697 52.6004 80.6794 52.6245 80.6611 52.6499C80.5804 52.7499 80.498 52.8388 80.4065 52.9374C80.3922 52.9517 80.3373 53.0049 80.3061 53.034C80.299 53.0412 80.2898 53.0486 80.2773 53.0585C80.1481 53.1659 80.0484 53.2412 79.9345 53.3185C79.8149 53.3988 79.6803 53.4809 79.5385 53.5656C79.4843 53.5978 79.4301 53.6273 79.3792 53.6555L79.2894 53.7036C79.2836 53.7067 79.2782 53.7097 79.2727 53.7131C79.0114 53.8314 78.7313 53.9555 78.4381 54.0643C78.1743 54.1603 77.88 54.2525 77.5396 54.3464C77.3928 54.3857 77.2481 54.4196 77.1003 54.4529C77.0687 54.4597 77.0359 54.4668 76.9999 54.4732L76.944 54.4837C76.9094 54.4888 76.8531 54.5007 76.8114 54.5112L76.6643 54.538C76.6138 54.5488 76.529 54.5627 76.4721 54.5722L76.4351 54.5773C76.291 54.6 76.1415 54.6227 76.0001 54.641C75.634 54.6831 75.3038 54.7197 74.9691 54.74C74.1541 54.7855 73.3272 54.7973 72.5098 54.7766C71.6925 54.7553 70.811 54.6922 69.7325 54.577C69.6661 54.5705 69.6013 54.5627 69.5349 54.5549L69.3996 54.539C69.3599 54.5342 69.2942 54.5251 69.2423 54.518L68.9555 54.4776C68.8124 54.459 68.6629 54.4383 68.5168 54.4135L68.2296 54.3651C67.8201 54.2983 67.4326 54.2352 67.0264 54.1528C64.9265 53.7304 63.014 53.2083 61.1826 52.5574L61.0585 52.5123C60.7775 52.4075 60.4863 52.2865 60.2042 52.1692L60.1011 52.1265C60.0537 52.1055 60.0062 52.0861 59.9594 52.0671L59.7435 51.9763L59.6184 52.0488C59.5329 52.0983 57.5215 53.2673 57.1845 53.4917L56.7709 53.7667L57.214 53.9908C57.5737 54.1728 57.928 54.343 58.2629 54.4959C58.6654 54.6858 59.0881 54.8716 59.519 55.0479C61.2545 55.7591 63.1083 56.3087 65.5313 56.8301C67.5743 57.2692 69.6495 57.5475 71.8755 57.6811C72.3258 57.7082 72.7858 57.7221 73.2432 57.7221C74.4698 57.7221 75.7252 57.6265 77.0809 57.4302C77.0979 57.4295 77.1189 57.4278 77.1399 57.4224C78.9639 57.0247 80.2291 56.5603 81.2432 55.9154C81.8714 55.5144 82.4104 55.0336 82.8451 54.4854C82.9488 54.3857 83.0359 54.2712 83.1048 54.145L83.1207 54.1125C83.1241 54.105 83.1275 54.0972 83.1312 54.0894C83.453 53.6145 83.7198 53.0741 83.9232 52.4821C84.1656 51.7769 84.1737 51.0195 84.1819 50.2832C84.1832 50.0598 84.1866 49.7967 84.1985 49.5427C84.2347 48.8867 84.2361 48.2348 84.2341 47.5127C84.2341 47.3225 84.2341 47.1346 84.2358 46.9465C84.2412 45.3927 84.2476 43.6318 84.2205 41.8516L84.1222 35.4803C84.1222 34.6473 84.329 34.612 84.7972 34.612H85.2254L92.3344 34.614C93.1576 34.614 93.6068 33.7604 93.6119 32.9559L93.6234 29.055C93.6292 29.014 93.6302 28.9764 93.6302 28.9486C93.6302 28.9116 93.6282 28.8743 93.6261 28.8523Z" fill="#F1A90E"/>
<path d="M48.5069 55.6541C48.4917 55.6599 48.4761 55.6677 48.4646 55.6734C48.7076 55.5517 49.5352 55.1408 50.4614 54.7242C50.5058 54.7048 50.5499 54.6838 50.5923 54.6645C50.6042 54.6584 50.6157 54.6547 50.6252 54.6489C51.1134 54.4309 51.6209 54.2149 52.0779 54.0393C51.0825 54.4502 49.0124 55.4168 48.5069 55.6541Z" fill="#31AE54"/>
<path d="M65.912 44.2158C63.015 47.1202 59.6346 49.2801 57.8774 50.3094C57.6004 50.4718 57.2567 50.4718 56.98 50.3094C55.8487 49.6456 52.9219 47.8362 50.1642 45.3654L49.9974 45.1928C49.7655 44.945 49.5743 44.7467 49.3943 44.5683C49.2872 44.4636 49.1675 44.3751 49.038 44.3053C49.0081 44.2761 48.9783 44.2473 48.9509 44.2219C44.7062 39.9708 43.4081 36.0422 45.0927 32.5437C45.843 30.9802 46.8326 30.0082 48.1175 29.5715C48.6545 29.3894 49.2509 29.2972 49.8903 29.2972C52.3479 29.2972 54.9733 30.6198 56.243 31.2595L56.5667 31.4222C56.6881 31.4992 56.8231 31.5602 56.9682 31.6036L56.9831 31.6084C57.2892 31.705 57.6215 31.6999 57.9205 31.5938L57.9629 31.5782C58.0605 31.5443 58.1517 31.5026 58.2351 31.4538L58.6284 31.2571C60.2052 30.4642 63.8982 28.607 66.7426 29.5732C68.0269 30.0116 69.0168 30.9839 69.7684 32.5458C71.448 36.0415 70.1505 39.9678 65.912 44.2158ZM72.4393 31.2612C71.3409 28.9768 69.7461 27.4651 67.6994 26.7681C63.7578 25.4249 59.2935 27.6211 57.8269 28.3425C57.5845 28.4615 57.2946 28.4686 57.0407 28.3432C55.5748 27.6197 51.1138 25.4184 47.1635 26.764C45.1151 27.4611 43.519 28.9735 42.4202 31.2592C40.1646 35.9462 41.6977 41.153 46.8536 46.3167C47.4679 46.931 48.1236 47.5372 48.7918 48.1085C50.1449 49.3927 51.5776 50.5389 53.1717 51.6126C53.5681 51.8808 53.9803 52.1476 54.4017 52.4097C54.3217 52.4585 54.242 52.507 54.162 52.5555C54.0902 52.5985 54.0207 52.6402 53.9464 52.683C53.3379 53.044 52.7035 53.3932 52.0082 53.7499L53.4504 54.8565C53.7271 55.0287 54.436 55.8491 54.436 55.8491C55.0184 55.5284 55.6209 55.1758 56.2287 54.7998L56.4132 54.6852C56.8108 54.4333 57.1685 54.2001 57.5048 53.9736C57.8276 53.759 59.8882 52.5612 59.914 52.5463C62.0807 51.2326 65.2441 49.0835 68.0116 46.3089C73.1601 41.1486 74.6911 35.9452 72.4393 31.2612Z" fill="#EB232D"/>
<path d="M90.9831 59.5996C90.5925 58.2814 90.403 57.8204 89.0239 56.8989C88.4946 56.5456 86.7148 55.9774 85.7682 56.3629C85.7343 56.3748 85.597 56.4046 85.497 56.426C85.2919 56.47 85.0586 56.5202 84.9054 56.5748C81.9918 57.6102 78.4188 60.1953 76.0547 61.9056L75.6838 62.1738C72.5784 64.5355 69.2247 64.7409 68.8528 64.7565L68.6073 64.767L68.5775 65.0104C68.4839 65.7753 68.3314 66.5937 67.8533 67.3948L67.5567 67.8922L68.1283 67.8315C70.6056 67.6416 74.3999 66.6849 75.8883 65.6146C76.1914 65.3966 76.5423 65.1457 76.8735 64.9091C77.4163 64.5209 77.8855 64.1856 78.0414 64.0686C80.8964 61.9297 83.1268 60.4685 86.0574 59.3416C86.196 59.3311 86.3184 59.3097 86.4279 59.2904C86.6178 59.2572 86.7819 59.2287 86.9958 59.2589C87.7423 59.364 88.017 59.6081 88.0834 60.2271C88.1031 60.4071 87.9953 60.6702 87.7624 61.0086C86.033 63.5238 83.3638 67.1073 81.0578 69.6212C79.3877 71.4418 78.2998 72.109 76.4975 73.2146L76.1605 73.422C76.0008 73.4817 74.9726 73.859 74.4135 74.0204C69.4637 75.4481 63.8525 76.8187 59.0176 77.7802C56.0047 78.3793 54.4123 78.2823 51.7743 78.122C48.9631 77.9511 46.3574 77.5877 43.5984 77.2032L42.623 77.0673C41.6825 76.9377 40.9007 76.8096 40.0735 76.6743C39.2188 76.5343 38.3353 76.3895 37.1975 76.2299C35.0637 75.9298 32.0511 75.3759 29.8722 74.8829C29.3853 74.7727 27.877 74.2605 27.4007 74.0062C26.3334 73.4376 25.5808 71.2967 25.4933 70.3562C25.2489 67.7301 25.4814 66.3937 26.5307 64.5226C27.0386 64.4599 28.2733 64.2687 29.4718 64.0832C30.261 63.9612 31.0022 63.8462 31.4236 63.7862C39.0147 62.7 46.1417 60.3536 53.2118 56.6131L53.5685 56.4246L53.2755 56.1473C52.1825 55.1122 50.8193 55.1739 49.5005 55.2346L49.3272 55.2424L49.2754 55.2665C43.0969 58.1377 37.0775 59.962 30.872 60.8438C30.6431 60.8767 30.3217 60.9167 29.9502 60.9631C27.9923 61.2076 26.1917 61.4517 25.6625 61.7504C23.4724 62.9861 22.3658 65.4336 22.4621 68.8292C22.5712 72.6765 22.9116 75.1348 26.7124 76.8245C29.4403 78.0372 34.607 78.7271 38.0261 79.1838C39.0662 79.3228 39.9643 79.4428 40.5891 79.5496C45.2589 80.347 46.8266 80.5399 49.9504 80.9244L51.3343 81.0952C52.6202 81.2556 53.2471 81.3014 54.0943 81.3014C54.4381 81.3014 54.8184 81.2939 55.2934 81.2834C56.9428 81.2468 57.8317 81.079 59.5289 80.7345C64.7668 79.6703 70.2062 78.3406 75.2587 76.8899C75.8469 76.7211 77.3417 76.1902 77.4671 76.1139L77.6607 75.9963C79.8308 74.6805 81.2646 73.8112 83.2323 71.6669C85.4519 69.2479 88.1387 65.7899 90.2444 62.6423C90.6688 62.0077 91.3296 60.7682 90.9831 59.5996Z" fill="#31AE54"/>
<path d="M68.8831 64.7962L68.8811 64.8271C68.8617 65.0237 68.6861 66.7446 68.0555 67.4661C66.8689 69.4707 64.569 69.9549 62.941 70.142C62.5626 70.1847 62.1463 70.2057 61.7042 70.2057C60.4505 70.2057 59.0652 70.04 57.8437 69.8932L57.6684 69.8721C57.406 69.8393 57.1514 69.8081 56.9083 69.7813C55.5617 69.6308 54.5046 69.3568 53.1367 68.8012C51.9368 68.315 50.6733 67.7227 49.5582 67.1999L49.3863 67.1209C48.6398 66.7717 47.8682 66.411 47.1427 66.0947C46.3883 65.7645 46.0429 64.881 46.3731 64.125C46.705 63.3703 47.5865 63.0252 48.3408 63.355C49.1338 63.7005 49.9593 64.0863 50.756 64.4586L50.8235 64.4894C52.0758 65.078 53.1984 65.5987 54.2616 66.031C55.3688 66.4805 56.1754 66.6928 57.2382 66.8101C57.541 66.8433 57.8613 66.8816 58.1912 66.9223C59.6999 67.1054 61.4035 67.3098 62.5975 67.1711C65.3586 66.8528 65.6827 65.9384 65.802 64.8657C65.9332 63.6812 65.5454 62.919 63.0607 62.0413C62.5938 61.8755 61.7835 61.827 60.9984 61.7826C60.2691 61.7423 59.5148 61.6999 58.8489 61.5531C57.165 61.1809 55.9726 60.4072 54.7996 59.5817C54.5565 59.4311 52.9902 58.1154 52.5871 57.7431L52.5501 57.7102C52.286 57.4672 52.0331 57.2356 51.767 57.0271L51.7189 56.9888L51.69 56.9329C51.686 56.9288 51.0917 55.9354 48.3988 55.9971H48.3696C48.1499 55.9798 47.9336 55.9663 47.7234 55.9585C48.273 55.6768 51.1961 54.1701 52.0701 53.7189C52.1145 53.7379 52.1586 53.7572 52.203 53.7785C52.2782 53.8192 53.7327 54.6254 54.4738 55.4181C54.4968 55.4435 54.524 55.4666 54.5511 55.4896C54.5721 55.5072 54.5914 55.5245 54.6124 55.5435C54.9386 55.8446 56.3798 57.0254 56.5015 57.1237C57.4603 57.7991 58.3475 58.3778 59.4938 58.6324C59.9236 58.727 60.5274 58.7616 61.1662 58.7965C62.1616 58.8541 63.1919 58.9141 64.0598 59.2209C65.3142 59.6664 68.2501 60.7083 68.74 63.6385C68.7421 63.6446 68.7461 63.6619 68.7495 63.6812C68.7516 63.6927 68.7516 63.7042 68.7536 63.7178L68.7577 63.7351C68.7631 63.7642 68.7651 63.7948 68.7671 63.8239C68.8136 64.1711 68.856 64.561 68.8733 64.7094L68.8831 64.7962Z" fill="#31AE54"/>
<path d="M50.6252 54.6489C51.3331 54.3211 51.9619 54.0451 52.0779 54.0394C51.0825 54.4503 49.0124 55.4168 48.5069 55.6541C48.808 55.5073 49.6627 55.0944 50.4614 54.7242C50.5055 54.7049 50.5499 54.6838 50.5923 54.6642C50.6041 54.6584 50.6157 54.6547 50.6252 54.6489Z" fill="#31AE54"/>
<path d="M57.4022 0.824646C57.0676 0.816849 55.998 1.49795 55.998 1.49795L21.6485 26.3781C21.6342 26.3879 21.6207 26.3984 21.6068 26.4093L21.5847 26.4259C21.5468 26.4544 21.5105 26.4869 21.4847 26.5151C21.4423 26.5575 21.4023 26.6015 21.3661 26.647C21.302 26.7249 21.2511 26.7992 21.2108 26.8741L21.1976 26.9005C21.1925 26.9117 21.1871 26.9233 21.182 26.9351C21.0864 27.1307 21.0359 27.3525 21.0359 27.5779L21.0379 27.9637L21.0453 28.0268C21.0498 28.0465 21.0589 28.0641 21.0643 28.0837H21.0369V28.0858L21.0718 32.9234C21.0531 33.3583 21.1877 33.7394 21.4613 34.0245C21.8346 34.4144 22.4384 34.612 23.2565 34.612L29.7492 34.589C30.2408 34.589 30.6405 34.9887 30.6405 35.4803L30.6401 46.1366C30.6222 46.7601 30.5689 48.878 30.6408 49.9517C30.6791 50.7416 30.7378 51.2501 30.8154 51.4664C31.1253 53.289 31.7708 54.6563 32.7886 55.6456C33.8141 56.641 34.902 57.2678 36.1144 57.5625L36.1232 57.5655C36.2236 57.5906 36.3219 57.6099 36.4202 57.6272C38.4344 58.0171 40.3444 57.4208 42.0362 56.8905C42.4508 56.761 42.8773 56.6261 43.294 56.5122C43.9208 56.3423 44.5074 56.2131 45.0651 56.1223C45.3197 56.0782 45.5685 56.0453 45.8136 56.0182C46.4388 55.9528 47.0579 55.9314 47.7234 55.9585C48.2733 55.6768 51.196 54.1702 52.07 53.7186C51.5106 53.4697 50.876 53.325 50.2718 53.2036C49.6046 53.0704 48.9832 53.0049 48.3255 52.9778C47.8969 52.9568 47.4552 52.9548 46.9731 52.9605C45.5146 52.9798 44.0948 53.1921 42.5051 53.6281C42.0592 53.7494 41.6233 53.8864 41.1412 54.0369C39.4586 54.5638 38.1798 54.9187 37.0125 54.7024C36.9471 54.6889 36.8813 54.6757 36.8138 54.6584L36.803 54.6563C36.1307 54.4895 35.4998 54.1119 34.8742 53.5019C34.1128 52.7615 33.6978 51.4115 33.6059 49.3851C33.6056 49.3543 33.5771 46.2841 33.6059 45.7474V33.0959C33.6059 32.284 32.9462 31.6239 32.1319 31.6239L24.6061 31.7185C24.1024 31.7185 24.0237 31.1055 24.0213 30.74L24.0081 28.9056C24.0081 28.7801 24.0335 28.6564 24.0837 28.5377L24.0484 28.5208C24.0623 28.498 24.079 28.4767 24.0918 28.4536C24.1081 28.4262 24.1227 28.3967 24.1335 28.3729C24.198 28.2465 24.2912 28.137 24.4044 28.0559L56.9378 4.50851C57.1659 4.34815 57.2497 4.35764 57.4785 4.35662L57.4022 0.824646Z" fill="#2744A0"/>
<path d="M4.7584 98.335C4.77332 98.4256 4.80383 98.5066 4.84892 98.5781C4.89401 98.65 4.95436 98.7083 5.02996 98.7531C5.10489 98.7985 5.19947 98.8212 5.31237 98.8212C5.44798 98.8212 5.55545 98.7985 5.63445 98.7531C5.71378 98.7083 5.77379 98.65 5.81549 98.5781C5.85685 98.5066 5.88329 98.4256 5.89448 98.335C5.90567 98.2445 5.91143 98.154 5.91143 98.0638V96.4589C5.91143 96.2853 5.93414 96.1666 5.97924 96.1026C6.02433 96.0388 6.12231 96.0066 6.27317 96.0066H9.29153C9.44951 96.0066 9.55868 96.0331 9.61903 96.0853C9.67937 96.1385 9.70955 96.2514 9.70955 96.4246V98.3011C9.70955 98.9792 9.59462 99.5803 9.36476 100.104C9.1349 100.628 8.82028 101.067 8.42091 101.421C8.02153 101.775 7.55232 102.043 7.01361 102.224C6.47455 102.404 5.89617 102.495 5.27847 102.495C4.66788 102.495 4.08408 102.404 3.52638 102.224C2.96834 102.043 2.47675 101.775 2.05127 101.421C1.62512 101.067 1.28812 100.628 1.03962 100.104C0.790771 99.5803 0.666687 98.9792 0.666687 98.3011V90.5127C0.666687 89.9096 0.779583 89.3542 1.00571 88.8453C1.23184 88.3368 1.54816 87.8957 1.95499 87.5228C2.36182 87.1499 2.84798 86.8576 3.41314 86.6468C3.97864 86.4359 4.60041 86.3301 5.27847 86.3301C6.06976 86.3301 6.74238 86.4566 7.29602 86.7088C7.85032 86.9614 8.30021 87.2892 8.64704 87.6923C8.99352 88.0954 9.2461 88.5518 9.40442 89.0603C9.56275 89.5688 9.64174 90.0831 9.64174 90.6032V91.8807C9.64174 92.0692 9.6153 92.2044 9.56275 92.2871C9.50986 92.3702 9.40035 92.4116 9.23491 92.4116H6.22808C6.08501 92.4116 5.98669 92.3739 5.93415 92.2987C5.8816 92.2237 5.85481 92.1064 5.85481 91.9481V90.7276C5.85481 90.652 5.84735 90.573 5.83244 90.49C5.81718 90.4072 5.78904 90.3283 5.74768 90.2526C5.70598 90.1774 5.64936 90.1153 5.57817 90.0662C5.50629 90.0174 5.41781 89.993 5.31237 89.993C5.11641 89.993 4.97131 90.0641 4.8774 90.2076C4.78281 90.3506 4.73602 90.5127 4.73602 90.6934V98.0638C4.73602 98.154 4.74348 98.2445 4.7584 98.335Z" fill="#2744A0"/>
<path d="M14.3444 97.1707H15.1919L14.9207 94.39L14.7624 92.4005L14.6156 94.39L14.3444 97.1707ZM19.623 101.794C19.661 101.937 19.6644 102.047 19.6345 102.122C19.6044 102.197 19.5328 102.235 19.4196 102.235H16.187C16.0358 102.235 15.9117 102.199 15.8137 102.128C15.7157 102.056 15.6594 101.945 15.6442 101.794L15.497 100.37H14.0277L13.8921 101.794C13.8772 101.945 13.8206 102.056 13.7226 102.128C13.6246 102.199 13.5002 102.235 13.3496 102.235H10.1167C10.0035 102.235 9.93192 102.195 9.90174 102.116C9.87157 102.037 9.8753 101.922 9.91327 101.771L12.8635 87.0426C12.9011 86.892 12.9577 86.7768 13.033 86.6974C13.1083 86.6184 13.2212 86.5791 13.3724 86.5791H16.1642C16.3148 86.5791 16.428 86.6184 16.5036 86.6974C16.5785 86.7768 16.6352 86.892 16.6731 87.0426L19.623 101.794Z" fill="#2744A0"/>
<path d="M19.7474 97.5775C19.7474 97.3365 19.7739 97.1707 19.8264 97.0802C19.8793 96.99 19.9963 96.9446 20.177 96.9446H23.1163C23.312 96.9446 23.4343 96.9802 23.4835 97.052C23.5323 97.1236 23.5567 97.2612 23.5567 97.4646V97.9508C23.5567 98.2902 23.6191 98.5197 23.7435 98.6404C23.8676 98.7607 24.0276 98.8211 24.2239 98.8211C24.3972 98.8211 24.5423 98.7607 24.6589 98.6404C24.7759 98.5197 24.8342 98.3312 24.8342 98.0752C24.8342 97.9094 24.804 97.7545 24.744 97.6118C24.6833 97.4687 24.5928 97.3253 24.4724 97.1819C24.3518 97.0388 24.2012 96.8903 24.0205 96.7357C23.8395 96.5815 23.632 96.4099 23.3988 96.2211C22.9312 95.8448 22.5169 95.5074 22.1552 95.2098C21.7935 94.9118 21.4788 94.6328 21.2114 94.3731C20.9435 94.113 20.7157 93.855 20.5275 93.5987C20.339 93.3428 20.1885 93.0675 20.0753 92.7735C19.9624 92.4796 19.8793 92.1538 19.8264 91.7954C19.7739 91.4378 19.7474 91.0255 19.7474 90.558C19.7474 89.8647 19.8776 89.2541 20.1373 88.7269C20.3973 88.1994 20.7347 87.7583 21.1493 87.404C21.5636 87.0501 22.027 86.7822 22.5393 86.6015C23.0519 86.4208 23.5605 86.33 24.0656 86.33C24.6911 86.33 25.2712 86.43 25.8062 86.6297C26.3415 86.8294 26.8029 87.1196 27.1914 87.5C27.5793 87.8807 27.8844 88.3499 28.1068 88.9076C28.3289 89.4653 28.4404 90.0983 28.4404 90.8065V91.4283C28.4404 91.6093 28.4099 91.7317 28.3499 91.7954C28.2895 91.8599 28.1499 91.8917 27.9315 91.8917H25.0491C24.8908 91.8917 24.7908 91.8599 24.7494 91.7954C24.7077 91.7317 24.6874 91.6056 24.6874 91.4171V90.8292C24.6874 90.558 24.6403 90.3508 24.546 90.2078C24.4514 90.0644 24.2955 89.9928 24.0768 89.9928C23.8808 89.9928 23.7357 90.0566 23.6415 90.1847C23.5472 90.3129 23.5005 90.4749 23.5005 90.6709C23.5005 90.8445 23.5174 90.995 23.5513 91.1231C23.5852 91.2513 23.6473 91.3774 23.7378 91.5018C23.8283 91.6259 23.9561 91.7581 24.1222 91.8975C24.288 92.0368 24.5064 92.2009 24.7779 92.3891C25.2902 92.7583 25.7818 93.137 26.2527 93.5252C26.7236 93.9133 27.1402 94.3412 27.502 94.808C27.8637 95.2755 28.1519 95.7936 28.3668 96.3625C28.5815 96.9317 28.6889 97.5775 28.6889 98.3014C28.6889 98.8818 28.5831 99.4259 28.3723 99.9345C28.1614 100.443 27.86 100.886 27.4677 101.263C27.0762 101.639 26.6015 101.939 26.0438 102.162C25.4861 102.384 24.8644 102.495 24.1789 102.495C23.3645 102.495 22.6753 102.363 22.1098 102.099C21.5446 101.836 21.0869 101.498 20.7367 101.088C20.3862 100.677 20.1336 100.216 19.9793 99.7029C19.8247 99.1903 19.7474 98.6855 19.7474 98.1881V97.5775Z" fill="#2744A0"/>
<path d="M33.2105 97.1707H34.058L33.7868 94.39L33.6285 92.4005L33.4817 94.39L33.2105 97.1707ZM38.4891 101.794C38.5271 101.937 38.5305 102.047 38.5007 102.122C38.4705 102.197 38.3989 102.235 38.2857 102.235H35.0531C34.9022 102.235 34.7778 102.199 34.6798 102.128C34.5818 102.056 34.5256 101.945 34.5103 101.794L34.3632 100.37H32.8938L32.7582 101.794C32.7433 101.945 32.6867 102.056 32.5887 102.128C32.4907 102.199 32.3663 102.235 32.2158 102.235H28.9828C28.8696 102.235 28.798 102.195 28.7679 102.116C28.7377 102.037 28.7414 101.922 28.7794 101.771L31.7296 87.0426C31.7672 86.892 31.8239 86.7768 31.8991 86.6974C31.9744 86.6184 32.0873 86.5791 32.2385 86.5791H35.0304C35.1809 86.5791 35.2941 86.6184 35.3697 86.6974C35.4447 86.7768 35.5013 86.892 35.5393 87.0426L38.4891 101.794Z" fill="#2744A0"/>
<path d="M48.9003 90.264V98.5725H49.3864C49.5671 98.5572 49.716 98.486 49.8326 98.3575C49.9496 98.2294 50.0082 98.0751 50.0082 97.8944V90.9762C50.0082 90.8254 49.9892 90.703 49.9516 90.6087C49.9136 90.5145 49.8648 90.443 49.8045 90.3941C49.7441 90.345 49.6726 90.3114 49.5899 90.2924C49.5068 90.2734 49.4203 90.264 49.3298 90.264H48.9003ZM44.8309 87.0537C44.8309 86.7374 44.9737 86.5791 45.2605 86.5791H49.5671C50.1852 86.5791 50.7673 86.6659 51.3135 86.8388C51.8596 87.0123 52.3383 87.2741 52.7492 87.6246C53.1598 87.9748 53.4843 88.4139 53.7216 88.9417C53.9585 89.4689 54.0775 90.087 54.0775 90.7952V98.0297C54.0775 98.7461 53.9569 99.3678 53.7158 99.895C53.4744 100.423 53.1486 100.86 52.7377 101.206C52.3272 101.553 51.8488 101.811 51.3023 101.981C50.7561 102.15 50.1777 102.235 49.5671 102.235H45.2605C44.9737 102.235 44.8309 102.08 44.8309 101.771V87.0537Z" fill="#2744A0"/>
<path d="M55.0044 87.0538C55.0044 86.7371 55.1474 86.5791 55.4339 86.5791H62.9512C63.1695 86.5791 63.279 86.7371 63.279 87.0538V89.8009C63.279 90.1098 63.1695 90.264 62.9512 90.264H59.0737V92.5701H62.1144C62.2351 92.5701 62.3314 92.6077 62.403 92.683C62.4745 92.7582 62.5104 92.8752 62.5104 93.0335V95.7803C62.5104 96.0817 62.3782 96.2326 62.1144 96.2326H59.0737V98.5725H63.0417C63.2749 98.5725 63.3919 98.719 63.3919 99.0129V101.794C63.3919 102.088 63.2749 102.235 63.0417 102.235H55.4339C55.1474 102.235 55.0044 102.08 55.0044 101.771V87.0538Z" fill="#2744A0"/>
<path d="M73.803 97.1707H74.6506L74.3793 94.39L74.221 92.4005L74.0742 94.39L73.803 97.1707ZM79.0816 101.794C79.1196 101.937 79.123 102.047 79.0932 102.122C79.063 102.197 78.9915 102.235 78.8786 102.235H75.6456C75.4944 102.235 75.3703 102.199 75.2723 102.128C75.1744 102.056 75.1181 101.945 75.1028 101.794L74.9557 100.37H73.4863L73.3507 101.794C73.3355 101.945 73.2789 102.056 73.1812 102.128C73.0832 102.199 72.9588 102.235 72.808 102.235H69.575C69.4621 102.235 69.3902 102.195 69.3604 102.116C69.3306 102.037 69.3336 101.922 69.3719 101.771L72.3221 87.0426C72.3598 86.892 72.4164 86.7768 72.4916 86.6974C72.5669 86.6184 72.6798 86.5791 72.831 86.5791H75.6226C75.7734 86.5791 75.8867 86.6184 75.9619 86.6974C76.0372 86.7768 76.0938 86.892 76.1314 87.0426L79.0816 101.794Z" fill="#2744A0"/>
<path d="M84.2026 95.3057C84.3982 95.3057 84.5606 95.2453 84.6887 95.1246C84.8169 95.0043 84.8806 94.8534 84.8806 94.6727V90.8969C84.8806 90.6861 84.8128 90.5277 84.6772 90.4223C84.5416 90.3169 84.3792 90.264 84.1914 90.264H83.7503V95.3057H84.2026ZM79.681 87.0537C79.681 86.7374 79.8241 86.5791 80.1105 86.5791H84.5304C85.1481 86.5791 85.7248 86.6883 86.2598 86.9069C86.7948 87.1253 87.262 87.4267 87.6613 87.8111C88.0607 88.1952 88.3757 88.6438 88.6052 89.156C88.835 89.6687 88.9503 90.2186 88.9503 90.8064V94.6615C88.9503 95.249 88.835 95.803 88.6052 96.3227C88.3757 96.8428 88.0607 97.2991 87.6613 97.6907C87.262 98.0826 86.7948 98.3935 86.2598 98.6234C85.7248 98.8532 85.1481 98.9682 84.5304 98.9682H83.7503V101.771C83.7503 102.08 83.611 102.235 83.3323 102.235H80.1105C79.8241 102.235 79.681 102.08 79.681 101.771V87.0537Z" fill="#2744A0"/>
<path d="M93.6414 98.0639C93.6414 98.2524 93.6756 98.4253 93.7431 98.5836C93.8109 98.7419 93.958 98.8209 94.1841 98.8209C94.4174 98.8209 94.5699 98.7572 94.6415 98.629C94.7134 98.5009 94.7493 98.3426 94.7493 98.1541V90.7613C94.7493 90.6707 94.7415 90.5806 94.7262 90.49C94.7113 90.3999 94.6828 90.3168 94.6415 90.2415C94.6001 90.1663 94.5455 90.1056 94.4781 90.0605C94.4103 90.0154 94.3194 89.9927 94.2065 89.9927C93.9878 89.9927 93.839 90.0757 93.7604 90.2415C93.6807 90.4073 93.6414 90.5806 93.6414 90.7613V98.0639ZM89.572 90.5127C89.572 89.8347 89.6961 89.2353 89.9449 88.7156C90.1935 88.1955 90.5308 87.7585 90.9566 87.4042C91.3824 87.0503 91.8723 86.7824 92.4263 86.6014C92.9799 86.4207 93.5624 86.3302 94.1726 86.3302C94.7907 86.3302 95.3802 86.4207 95.9416 86.6014C96.5027 86.7824 96.9964 87.0479 97.4225 87.3984C97.848 87.7487 98.1874 88.184 98.4396 88.7044C98.6922 89.2241 98.8186 89.8272 98.8186 90.5127V98.3012C98.8186 98.9871 98.6922 99.5898 98.4396 100.11C98.1874 100.63 97.848 101.067 97.4225 101.421C96.9964 101.775 96.5048 102.043 95.9474 102.224C95.3894 102.404 94.8018 102.495 94.1841 102.495C93.5735 102.495 92.9894 102.401 92.4317 102.212C91.874 102.024 91.3824 101.751 90.9566 101.392C90.5308 101.035 90.1935 100.596 89.9449 100.076C89.6961 99.5559 89.572 98.964 89.572 98.3012V90.5127Z" fill="#2744A0"/>
<path d="M99.7455 87.0538C99.7455 86.7371 99.8886 86.5791 100.175 86.5791H103.397C103.675 86.5791 103.815 86.7371 103.815 87.0538V101.771C103.815 102.08 103.675 102.235 103.397 102.235H100.175C99.8886 102.235 99.7455 102.08 99.7455 101.771V87.0538Z" fill="#2744A0"/>
<path d="M108.823 98.0639C108.823 98.2524 108.857 98.4253 108.924 98.5836C108.992 98.7419 109.139 98.8209 109.365 98.8209C109.599 98.8209 109.751 98.7572 109.823 98.629C109.894 98.5009 109.93 98.3426 109.93 98.1541V90.7613C109.93 90.6707 109.923 90.5806 109.908 90.49C109.892 90.3999 109.864 90.3168 109.823 90.2415C109.781 90.1663 109.727 90.1056 109.659 90.0605C109.591 90.0154 109.501 89.9927 109.388 89.9927C109.169 89.9927 109.02 90.0757 108.941 90.2415C108.862 90.4073 108.823 90.5806 108.823 90.7613V98.0639ZM104.753 90.5127C104.753 89.8347 104.877 89.2353 105.126 88.7156C105.375 88.1955 105.712 87.7585 106.138 87.4042C106.563 87.0503 107.053 86.7824 107.607 86.6014C108.161 86.4207 108.743 86.3302 109.354 86.3302C109.972 86.3302 110.562 86.4207 111.123 86.6014C111.684 86.7824 112.178 87.0479 112.604 87.3984C113.029 87.7487 113.368 88.184 113.621 88.7044C113.873 89.2241 114 89.8272 114 90.5127V98.3012C114 98.9871 113.873 99.5898 113.621 100.11C113.368 100.63 113.029 101.067 112.604 101.421C112.178 101.775 111.686 102.043 111.129 102.224C110.571 102.404 109.983 102.495 109.365 102.495C108.755 102.495 108.171 102.401 107.613 102.212C107.055 102.024 106.563 101.751 106.138 101.392C105.712 101.035 105.375 100.596 105.126 100.076C104.877 99.5559 104.753 98.964 104.753 98.3012V90.5127Z" fill="#2744A0"/>
<path d="M9.46091 110.328V118.636H9.94707C10.1278 118.621 10.2766 118.55 10.3932 118.421C10.5102 118.293 10.5688 118.139 10.5688 117.958V111.04C10.5688 110.889 10.5499 110.767 10.5122 110.673C10.4743 110.578 10.4254 110.507 10.3651 110.458C10.3047 110.409 10.2332 110.375 10.1505 110.356C10.0674 110.337 9.98098 110.328 9.89046 110.328H9.46091ZM5.39157 107.117C5.39157 106.801 5.5343 106.643 5.82112 106.643H10.1278C10.7458 106.643 11.3279 106.729 11.8741 106.903C12.4203 107.076 12.899 107.338 13.3099 107.688C13.7204 108.039 14.0449 108.478 14.2822 109.005C14.5192 109.533 14.6382 110.151 14.6382 110.859V118.094C14.6382 118.81 14.5175 119.431 14.2764 119.959C14.0351 120.486 13.7093 120.923 13.2984 121.27C12.8878 121.617 12.4091 121.875 11.8629 122.045C11.3167 122.214 10.7384 122.299 10.1278 122.299H5.82112C5.5343 122.299 5.39157 122.144 5.39157 121.835V107.117Z" fill="#2744A0"/>
<path d="M15.5651 107.117C15.5651 106.801 15.7081 106.643 15.9946 106.643H23.5118C23.7302 106.643 23.8397 106.801 23.8397 107.117V109.864C23.8397 110.174 23.7302 110.328 23.5118 110.328H19.6347V112.634H22.6755C22.7958 112.634 22.8918 112.672 22.9636 112.746C23.0352 112.822 23.0711 112.939 23.0711 113.097V115.844C23.0711 116.146 22.9389 116.296 22.6755 116.296H19.6347V118.636H23.6024C23.8356 118.636 23.9526 118.783 23.9526 119.077V121.858C23.9526 122.152 23.8356 122.299 23.6024 122.299H15.9946C15.7081 122.299 15.5651 122.144 15.5651 121.835V107.117Z" fill="#2744A0"/>
<path d="M34.352 118.399C34.3669 118.489 34.3975 118.57 34.4425 118.642C34.488 118.713 34.5483 118.772 34.6236 118.817C34.6989 118.862 34.7931 118.885 34.906 118.885C35.0416 118.885 35.1491 118.862 35.2281 118.817C35.3074 118.772 35.3678 118.713 35.4091 118.642C35.4505 118.57 35.4769 118.489 35.4884 118.399C35.4993 118.308 35.5051 118.218 35.5051 118.127V116.522C35.5051 116.349 35.5278 116.23 35.5732 116.166C35.618 116.103 35.7159 116.07 35.8668 116.07H38.8852C39.0431 116.07 39.1523 116.097 39.2127 116.149C39.2733 116.202 39.3032 116.315 39.3032 116.488V118.365C39.3032 119.043 39.1886 119.644 38.9584 120.168C38.7285 120.692 38.4139 121.131 38.0145 121.485C37.6152 121.839 37.1463 122.106 36.6072 122.288C36.0685 122.468 35.4898 122.559 34.8721 122.559C34.2618 122.559 33.6777 122.468 33.12 122.288C32.5623 122.106 32.0707 121.839 31.6449 121.485C31.2191 121.131 30.8817 120.692 30.6332 120.168C30.3844 119.644 30.2603 119.043 30.2603 118.365V110.577C30.2603 109.973 30.3732 109.418 30.5993 108.909C30.8255 108.4 31.1418 107.96 31.5486 107.587C31.9558 107.213 32.442 106.921 33.0071 106.71C33.5723 106.499 34.194 106.394 34.8721 106.394C35.6634 106.394 36.3363 106.52 36.89 106.773C37.444 107.025 37.8938 107.353 38.2407 107.756C38.5871 108.159 38.8397 108.616 38.998 109.124C39.1564 109.633 39.2354 110.147 39.2354 110.667V111.944C39.2354 112.133 39.2089 112.268 39.1564 112.351C39.1038 112.434 38.9943 112.475 38.8285 112.475H35.8217C35.6786 112.475 35.5803 112.438 35.5278 112.363C35.4752 112.288 35.4484 112.17 35.4484 112.012V110.791C35.4484 110.716 35.441 110.637 35.4261 110.554C35.4108 110.471 35.3827 110.392 35.3413 110.316C35.2996 110.241 35.2433 110.179 35.1718 110.13C35.0999 110.081 35.0114 110.056 34.906 110.056C34.71 110.056 34.5649 110.128 34.471 110.271C34.3764 110.414 34.3297 110.577 34.3297 110.757V118.127C34.3297 118.218 34.3371 118.308 34.352 118.399Z" fill="#2744A0"/>
<path d="M44.085 118.127C44.085 118.316 44.1189 118.489 44.1867 118.647C44.2545 118.806 44.4013 118.884 44.6275 118.884C44.861 118.884 45.0136 118.821 45.0851 118.693C45.157 118.564 45.1926 118.406 45.1926 118.218V110.825C45.1926 110.735 45.1852 110.644 45.1699 110.554C45.155 110.464 45.1265 110.381 45.0851 110.305C45.0438 110.23 44.9892 110.169 44.9214 110.124C44.8536 110.079 44.7631 110.056 44.6502 110.056C44.4315 110.056 44.2827 110.139 44.2037 110.305C44.1243 110.471 44.085 110.644 44.085 110.825V118.127ZM40.0157 110.577C40.0157 109.899 40.1398 109.299 40.3886 108.779C40.6371 108.259 40.9744 107.822 41.4003 107.468C41.8257 107.114 42.316 106.846 42.8699 106.665C43.4236 106.484 44.0057 106.394 44.6163 106.394C45.234 106.394 45.8239 106.484 46.3853 106.665C46.9464 106.846 47.44 107.112 47.8662 107.462C48.2917 107.812 48.631 108.248 48.8833 108.768C49.1358 109.288 49.2623 109.891 49.2623 110.577V118.365C49.2623 119.051 49.1358 119.654 48.8833 120.173C48.631 120.693 48.2917 121.13 47.8662 121.485C47.44 121.839 46.9484 122.106 46.3911 122.288C45.833 122.468 45.2452 122.558 44.6275 122.558C44.0172 122.558 43.4331 122.464 42.8754 122.276C42.3177 122.088 41.8257 121.815 41.4003 121.456C40.9744 121.099 40.6371 120.66 40.3886 120.14C40.1398 119.619 40.0157 119.028 40.0157 118.365V110.577Z" fill="#2744A0"/>
<path d="M50.189 107.117C50.189 106.801 50.332 106.643 50.6185 106.643H53.5691C53.8478 106.665 54.0325 106.82 54.1227 107.106L55.728 113.3L56.0443 114.872L55.9768 113.47L55.7843 107.117C55.7843 106.989 55.8222 106.878 55.8975 106.784C55.9728 106.69 56.086 106.643 56.2365 106.643H59.1417C59.2322 106.643 59.3244 106.671 59.419 106.728C59.5129 106.784 59.5604 106.906 59.5604 107.095V121.835C59.5604 122.144 59.402 122.299 59.085 122.299H56.1575C56.0219 122.299 55.8992 122.263 55.79 122.191C55.6809 122.12 55.6036 122.009 55.5585 121.858L54.0888 116.307L53.7386 114.917L53.8176 116.319L53.9647 121.835C53.9796 122.144 53.8328 122.299 53.5236 122.299H50.6185C50.332 122.299 50.189 122.144 50.189 121.835V107.117Z" fill="#2744A0"/>
<path d="M60.1479 107.117C60.1479 106.801 60.2645 106.643 60.4981 106.643H68.3771C68.6181 106.643 68.7388 106.801 68.7388 107.117V109.864C68.7388 110.174 68.6181 110.328 68.3771 110.328H66.4779V121.858C66.4779 122.152 66.3612 122.299 66.1276 122.299H62.7591C62.5255 122.299 62.4085 122.152 62.4085 121.858V110.328H60.4981C60.2645 110.328 60.1479 110.174 60.1479 109.864V107.117Z" fill="#2744A0"/>
<path d="M72.3333 117.234H73.1812L72.9097 114.454L72.7513 112.464L72.6049 114.454L72.3333 117.234ZM77.6123 121.858C77.6503 122.001 77.6533 122.11 77.6235 122.186C77.5937 122.261 77.5221 122.299 77.4089 122.299H74.1759C74.0251 122.299 73.901 122.263 73.803 122.191C73.7047 122.12 73.6484 122.009 73.6335 121.858L73.4864 120.434H72.0167L71.8811 121.858C71.8661 122.009 71.8095 122.12 71.7115 122.191C71.6139 122.263 71.4895 122.299 71.3386 122.299H68.1057C67.9924 122.299 67.9209 122.259 67.8907 122.18C67.8609 122.101 67.8643 121.986 67.9026 121.835L70.8525 107.106C70.8901 106.955 70.9467 106.841 71.022 106.761C71.0972 106.682 71.2101 106.643 71.3613 106.643H74.1532C74.3037 106.643 74.417 106.682 74.4926 106.761C74.5678 106.841 74.6241 106.955 74.6621 107.106L77.6123 121.858Z" fill="#2744A0"/>
<path d="M82.0774 118.693C82.1682 118.821 82.3035 118.884 82.4842 118.884C82.6802 118.884 82.8348 118.823 82.9476 118.698C83.0609 118.574 83.1172 118.421 83.1172 118.241V116.782H82.6995C82.571 116.782 82.4842 116.747 82.4391 116.675C82.394 116.603 82.3713 116.492 82.3713 116.341V113.9C82.3713 113.749 82.394 113.636 82.4391 113.561C82.4842 113.486 82.571 113.447 82.6995 113.447H86.4637C86.7647 113.447 86.9156 113.599 86.9156 113.9V118.365C86.9156 119.051 86.8007 119.654 86.5708 120.173C86.3406 120.693 86.026 121.13 85.627 121.485C85.2273 121.839 84.7584 122.106 84.2197 122.288C83.6806 122.468 83.1019 122.558 82.4842 122.558C81.874 122.558 81.2901 122.468 80.7321 122.288C80.1744 122.106 79.6828 121.841 79.2573 121.49C78.8312 121.14 78.4942 120.703 78.2453 120.179C77.9968 119.656 77.8728 119.051 77.8728 118.365V110.577C77.8728 109.899 77.9968 109.297 78.2453 108.773C78.4942 108.25 78.8312 107.812 79.2573 107.462C79.6828 107.112 80.1744 106.846 80.7321 106.665C81.2901 106.484 81.874 106.394 82.4842 106.394C83.1097 106.394 83.6542 106.469 84.118 106.62C84.5814 106.771 84.973 106.971 85.2934 107.219C85.6138 107.468 85.8755 107.747 86.0792 108.056C86.2823 108.365 86.4406 108.677 86.5539 108.994C86.6668 109.31 86.7441 109.616 86.7858 109.91C86.8271 110.203 86.8475 110.456 86.8475 110.667V111.843C86.8475 112.023 86.821 112.155 86.7688 112.238C86.7159 112.321 86.6064 112.363 86.4406 112.363H83.4114C83.2684 112.363 83.1721 112.325 83.1233 112.249C83.0738 112.174 83.0497 112.061 83.0497 111.91V110.78C83.0497 110.705 83.0402 110.623 83.0212 110.537C83.0026 110.45 82.9707 110.371 82.9253 110.299C82.8802 110.228 82.8181 110.169 82.7388 110.124C82.6598 110.079 82.5635 110.056 82.4506 110.056C82.2621 110.056 82.1299 110.121 82.055 110.249C81.9794 110.377 81.9421 110.535 81.9421 110.723V118.15C81.9421 118.384 81.9868 118.564 82.0774 118.693Z" fill="#2744A0"/>
<path d="M87.7859 107.117C87.7859 106.801 87.9289 106.643 88.2157 106.643H95.7326C95.9513 106.643 96.0605 106.801 96.0605 107.117V109.864C96.0605 110.174 95.9513 110.328 95.7326 110.328H91.8555V112.634H94.8963C95.0166 112.634 95.1126 112.672 95.1844 112.746C95.256 112.822 95.2919 112.939 95.2919 113.097V115.844C95.2919 116.146 95.1597 116.296 94.8963 116.296H91.8555V118.636H95.8232C96.0568 118.636 96.1734 118.783 96.1734 119.077V121.858C96.1734 122.152 96.0568 122.299 95.8232 122.299H88.2157C87.9289 122.299 87.7859 122.144 87.7859 121.835V107.117Z" fill="#2744A0"/>
<path d="M109.275 121.835C109.275 122.144 109.158 122.299 108.924 122.299H105.895C105.661 122.299 105.545 122.144 105.545 121.835L105.612 115.098L105.703 114.092L104.663 119.732C104.618 119.921 104.574 120.044 104.533 120.1C104.491 120.157 104.395 120.185 104.245 120.185H101.927C101.777 120.185 101.682 120.155 101.645 120.094C101.607 120.034 101.562 119.914 101.509 119.732L100.492 114.296L100.571 115.098L100.616 121.835C100.616 122.144 100.503 122.299 100.277 122.299H97.2473C97.0138 122.299 96.8968 122.144 96.8968 121.835V107.117C96.8968 106.801 97.0138 106.643 97.2473 106.643H101.283C101.434 106.643 101.526 106.682 101.56 106.761C101.594 106.84 101.626 106.955 101.656 107.106L102.979 113.346L103.069 114.002L103.171 113.357L104.516 107.106C104.546 106.955 104.576 106.84 104.606 106.761C104.636 106.682 104.727 106.643 104.877 106.643H108.936C109.154 106.643 109.264 106.801 109.264 107.117L109.275 121.835Z" fill="#2744A0"/>
<path d="M5.11713 132.158L5.77823 131.372C6.37695 131.89 6.97533 132.185 7.75272 132.185C8.43145 132.185 8.86032 131.872 8.86032 131.399V131.381C8.86032 130.934 8.61046 130.693 7.44895 130.425C6.11759 130.103 5.36733 129.71 5.36733 128.557V128.54C5.36733 127.467 6.26066 126.726 7.50252 126.726C8.41382 126.726 9.13731 127.003 9.77162 127.513L9.18206 128.343C8.61927 127.923 8.05615 127.7 7.48455 127.7C6.84142 127.7 6.46611 128.031 6.46611 128.442V128.459C6.46611 128.942 6.75191 129.156 7.94902 129.442C9.27122 129.764 9.95911 130.237 9.95911 131.274V131.291C9.95911 132.462 9.03899 133.159 7.7256 133.159C6.76988 133.159 5.86739 132.828 5.11713 132.158Z" fill="#EB232D"/>
<path d="M11.3328 130.416V126.816H12.432V130.371C12.432 131.533 13.0303 132.158 14.0132 132.158C14.9869 132.158 15.5856 131.568 15.5856 130.416V126.816H16.6844V130.363C16.6844 132.23 15.63 133.168 13.9952 133.168C12.3692 133.168 11.3328 132.23 11.3328 130.416Z" fill="#EB232D"/>
<path d="M17.9505 132.158L18.6116 131.372C19.21 131.89 19.8087 132.185 20.5857 132.185C21.2648 132.185 21.6937 131.872 21.6937 131.399V131.381C21.6937 130.934 21.4435 130.693 20.2823 130.425C18.9509 130.103 18.2003 129.71 18.2003 128.557V128.54C18.2003 127.467 19.094 126.726 20.3355 126.726C21.2468 126.726 21.9706 127.003 22.605 127.513L22.0154 128.343C21.4526 127.923 20.8895 127.7 20.3179 127.7C19.6744 127.7 19.2995 128.031 19.2995 128.442V128.459C19.2995 128.942 19.5853 129.156 20.7824 129.442C22.1046 129.764 22.7924 130.237 22.7924 131.274V131.291C22.7924 132.462 21.8723 133.159 20.5589 133.159C19.6032 133.159 18.7007 132.828 17.9505 132.158Z" fill="#EB232D"/>
<path d="M25.6675 127.834H23.6842V126.816H28.7587V127.834H26.7751V133.069H25.6675V127.834Z" fill="#EB232D"/>
<path d="M30.0965 126.816H34.7331V127.798H31.1953V129.424H34.3313V130.407H31.1953V132.086H34.7778V133.069H30.0965V126.816Z" fill="#EB232D"/>
<path d="M36.2586 126.816H37.277L40.6273 131.14V126.816H41.7081V133.069H40.788L37.3394 128.62V133.069H36.2586V126.816Z" fill="#EB232D"/>
<path d="M45.0291 127.834H43.0458V126.816H48.1203V127.834H46.137V133.069H45.0291V127.834Z" fill="#EB232D"/>
<path d="M52.4425 130.586L51.3613 128.084L50.2893 130.586H52.4425ZM50.8701 126.771H51.8885L54.6404 133.069H53.4789L52.8446 131.559H49.8876L49.2441 133.069H48.1185L50.8701 126.771Z" fill="#EB232D"/>
<path d="M55.8884 126.816H56.9068L60.2567 131.14V126.816H61.3379V133.069H60.4178L56.9692 128.62V133.069H55.8884V126.816Z" fill="#EB232D"/>
<path d="M65.4538 132.069C66.7672 132.069 67.6249 131.184 67.6249 129.96V129.943C67.6249 128.718 66.7672 127.816 65.4538 127.816H64.2208V132.069H65.4538ZM63.122 126.816H65.4538C67.4195 126.816 68.7776 128.164 68.7776 129.925V129.943C68.7776 131.702 67.4195 133.069 65.4538 133.069H63.122V126.816Z" fill="#EB232D"/>
<path d="M75.3948 129.96V129.942C75.3948 128.727 74.5103 127.718 73.2685 127.718C72.0266 127.718 71.1601 128.71 71.1601 129.925V129.942C71.1601 131.157 72.0446 132.167 73.2864 132.167C74.5279 132.167 75.3948 131.175 75.3948 129.96ZM70.0074 129.96V129.942C70.0074 128.183 71.3655 126.708 73.2864 126.708C75.207 126.708 76.5472 128.164 76.5472 129.925V129.942C76.5472 131.702 75.1894 133.176 73.2685 133.176C71.3475 133.176 70.0074 131.72 70.0074 129.96Z" fill="#EB232D"/>
<path d="M80.376 126.816H81.591L83.476 131.622L85.3522 126.816H86.5405L83.9408 133.114H82.9756L80.376 126.816Z" fill="#EB232D"/>
<path d="M87.8511 126.816H88.9499V133.069H87.8511V126.816Z" fill="#EB232D"/>
<path d="M93.1302 132.069C94.4432 132.069 95.301 131.184 95.301 129.96V129.943C95.301 128.718 94.4432 127.816 93.1302 127.816H91.8968V132.069H93.1302ZM90.7983 126.816H93.1302C95.0955 126.816 96.4537 128.164 96.4537 129.925V129.943C96.4537 131.702 95.0955 133.069 93.1302 133.069H90.7983V126.816Z" fill="#EB232D"/>
<path d="M101.32 130.586L100.239 128.084L99.1669 130.586H101.32ZM99.7477 126.771H100.766L103.518 133.069H102.356L101.722 131.559H98.7652L98.1214 133.069H96.9961L99.7477 126.771Z" fill="#EB232D"/>
<path d="M104.248 132.158L104.909 131.372C105.508 131.89 106.106 132.185 106.883 132.185C107.563 132.185 107.991 131.872 107.991 131.399V131.381C107.991 130.934 107.741 130.693 106.58 130.425C105.248 130.103 104.498 129.71 104.498 128.557V128.54C104.498 127.467 105.391 126.726 106.633 126.726C107.545 126.726 108.268 127.003 108.902 127.513L108.313 128.343C107.75 127.923 107.187 127.7 106.615 127.7C105.972 127.7 105.597 128.031 105.597 128.442V128.459C105.597 128.942 105.883 129.156 107.08 129.442C108.402 129.764 109.09 130.237 109.09 131.274V131.291C109.09 132.462 108.17 133.159 106.856 133.159C105.901 133.159 104.998 132.828 104.248 132.158Z" fill="#EB232D"/>
</svg>
