<svg width="22" height="24" viewBox="0 0 22 24" fill="none" xmlns="http://www.w3.org/2000/svg">
<path d="M21.8233 8.35865L21.823 8.35097L21.8245 7.95363C21.8252 7.80915 21.7554 7.67367 21.6374 7.59097L15.0631 2.82491L11.4375 0.18881L11.2924 0.0835609C11.2117 0.0247192 11.1157 -0.00298309 11.0206 0.00025177L11.0219 1.05325C11.0865 1.05295 11.1426 1.05912 11.1945 1.10411L15.6684 4.35725L20.8879 8.16282C20.9511 8.2068 20.9913 8.27555 20.9993 8.35309C20.9984 8.36452 20.9973 8.37594 20.9973 8.38737C20.9973 8.40557 20.9989 8.42205 21.001 8.43802L20.9963 8.43812L20.9946 8.9307C21.0003 9.11208 20.9543 9.15708 20.7222 9.19266H19.3181H18.5713C18.3295 9.19266 18.1329 9.38931 18.1329 9.63105V10.6477C18.1328 10.6555 18.1277 11.4373 18.1329 11.7787V12.2218C18.1329 12.2535 18.1372 12.282 18.1411 12.3026C18.1462 12.6349 18.1514 13.0257 18.1502 13.4124C18.1497 13.5497 18.1471 13.699 18.1445 13.8465L18.1433 13.9217C18.1417 14.0003 18.1405 14.0787 18.1394 14.1558L18.1375 14.2878C18.1346 14.5119 18.1309 14.7301 18.1197 14.9354C18.1186 14.9554 18.117 14.976 18.1153 14.9967L18.114 15.0141C18.1134 15.0182 18.1131 15.0219 18.113 15.0253L18.1122 15.033C18.1084 15.052 18.1052 15.0705 18.1021 15.0882L18.0984 15.1081C18.092 15.1425 18.0854 15.178 18.0761 15.2125C18.074 15.2197 18.0702 15.2311 18.0661 15.2432L18.0624 15.2538C18.0575 15.2683 18.0531 15.2821 18.0508 15.2918L18.0455 15.3042C18.031 15.3347 18.0155 15.3641 17.9989 15.3938L17.9886 15.4137C17.9873 15.4159 17.986 15.4181 17.9847 15.4199C17.9814 15.4236 17.9784 15.4274 17.9755 15.4311C17.9748 15.432 17.9742 15.433 17.9733 15.4339C17.9676 15.4408 17.9623 15.448 17.9569 15.4556C17.9328 15.4854 17.9082 15.5119 17.8809 15.5413C17.8767 15.5456 17.8603 15.5614 17.851 15.5701C17.8489 15.5723 17.8462 15.5745 17.8424 15.5774C17.8039 15.6095 17.7742 15.6319 17.7402 15.655C17.7045 15.6789 17.6644 15.7034 17.6221 15.7287C17.6059 15.7383 17.5898 15.7471 17.5746 15.7555L17.5478 15.7698C17.5461 15.7707 17.5445 15.7716 17.5428 15.7726C17.4649 15.8079 17.3814 15.8449 17.2939 15.8774C17.2153 15.906 17.1275 15.9335 17.026 15.9615C16.9822 15.9732 16.939 15.9833 16.895 15.9933C16.8856 15.9953 16.8758 15.9974 16.865 15.9993L16.8484 16.0025C16.838 16.004 16.8213 16.0075 16.8088 16.0106L16.7649 16.0186C16.7499 16.0219 16.7246 16.026 16.7076 16.0288L16.6966 16.0304C16.6536 16.0371 16.609 16.0439 16.5669 16.0494C16.4577 16.0619 16.3592 16.0728 16.2594 16.0789C16.0164 16.0924 15.7698 16.096 15.526 16.0898C15.2822 16.0834 15.0194 16.0646 14.6978 16.0303C14.6779 16.0283 14.6586 16.026 14.6388 16.0237L14.5985 16.0189C14.5866 16.0175 14.567 16.0148 14.5516 16.0127L14.466 16.0006C14.4234 15.9951 14.3788 15.9889 14.3352 15.9815L14.2496 15.9671C14.1274 15.9471 14.0119 15.9283 13.8907 15.9038C13.2645 15.7778 12.6942 15.6221 12.148 15.428L12.111 15.4145C12.0272 15.3833 11.9403 15.3472 11.8562 15.3122L11.8255 15.2995C11.8113 15.2932 11.7972 15.2874 11.7832 15.2818L11.7188 15.2547L11.6815 15.2763C11.656 15.2911 11.0562 15.6397 10.9557 15.7066L10.8323 15.7886L10.9645 15.8554C11.0718 15.9097 11.1774 15.9605 11.2773 16.0061C11.3973 16.0627 11.5234 16.1181 11.6519 16.1707C12.1694 16.3828 12.7223 16.5467 13.4449 16.7022C14.0541 16.8331 14.673 16.9161 15.3368 16.956C15.4711 16.9641 15.6083 16.9682 15.7447 16.9682C16.1105 16.9682 16.4849 16.9397 16.8892 16.8811C16.8943 16.8809 16.9005 16.8804 16.9068 16.8788C17.4507 16.7602 17.8281 16.6217 18.1305 16.4294C18.3178 16.3098 18.4786 16.1664 18.6082 16.003C18.6391 15.9732 18.6651 15.9391 18.6856 15.9014L18.6904 15.8917C18.6914 15.8895 18.6924 15.8872 18.6935 15.8849C18.7895 15.7432 18.869 15.5821 18.9297 15.4055C19.002 15.1952 19.0044 14.9694 19.0068 14.7498C19.0072 14.6831 19.0082 14.6047 19.0118 14.529C19.0226 14.3333 19.023 14.1389 19.0224 13.9235C19.0224 13.8668 19.0224 13.8108 19.0229 13.7547C19.0245 13.2913 19.0264 12.7662 19.0184 12.2353L18.989 10.3352C18.989 10.0868 19.0507 10.0763 19.1903 10.0763H19.318L21.4381 10.0769C21.6836 10.0769 21.8175 9.82234 21.819 9.58242L21.8225 8.41912C21.8242 8.40688 21.8245 8.39566 21.8245 8.38737C21.8245 8.37635 21.8239 8.36523 21.8233 8.35865Z" fill="#F1A90E"/>
<path d="M13.5584 12.9404C12.6945 13.8065 11.6864 14.4507 11.1624 14.7576C11.0797 14.8061 10.9772 14.8061 10.8947 14.7576C10.5573 14.5597 9.68451 14.0201 8.86213 13.2832L8.81238 13.2318C8.74323 13.1578 8.6862 13.0987 8.63252 13.0455C8.60057 13.0143 8.56488 12.9879 8.52626 12.9671C8.51736 12.9584 8.50846 12.9498 8.50027 12.9422C7.23445 11.6744 6.84732 10.5028 7.3497 9.45955C7.57345 8.99326 7.86857 8.70339 8.25176 8.57317C8.41191 8.51887 8.58975 8.49137 8.78043 8.49137C9.51334 8.49137 10.2963 8.88578 10.6749 9.07657L10.7715 9.1251C10.8077 9.14805 10.8479 9.16625 10.8912 9.17919L10.8956 9.1806C10.9869 9.20942 11.086 9.2079 11.1752 9.17625L11.1878 9.1716C11.2169 9.16149 11.2441 9.14906 11.269 9.1345L11.3863 9.07586C11.8565 8.83937 12.9579 8.28553 13.8061 8.57367C14.1891 8.7044 14.4843 8.99437 14.7085 9.46016C15.2094 10.5026 14.8224 11.6735 13.5584 12.9404ZM15.505 9.07707C15.1774 8.39583 14.7018 7.94501 14.0914 7.73713C12.916 7.33656 11.5847 7.99151 11.1473 8.20666C11.075 8.24215 10.9886 8.24427 10.9128 8.20687C10.4757 7.99111 9.14532 7.33464 7.96725 7.73592C7.35638 7.94379 6.88038 8.39482 6.5527 9.07646C5.88005 10.4742 6.33725 12.027 7.87484 13.5669C8.05804 13.7501 8.25358 13.9309 8.45285 14.1013C8.85636 14.4842 9.28363 14.8261 9.75902 15.1463C9.87721 15.2262 10.0002 15.3058 10.1258 15.384C10.102 15.3985 10.0782 15.413 10.0543 15.4274C10.0329 15.4403 10.0122 15.4527 9.99005 15.4655C9.80856 15.5731 9.6194 15.6773 9.41203 15.7836L9.84213 16.1136C9.92463 16.165 10.136 16.4097 10.136 16.4097C10.3097 16.314 10.4894 16.2089 10.6707 16.0967L10.7257 16.0626C10.8443 15.9875 10.9509 15.9179 11.0512 15.8504C11.1475 15.7864 11.762 15.4292 11.7697 15.4247C12.4158 15.0329 13.3593 14.392 14.1846 13.5646C15.7199 12.0257 16.1765 10.4739 15.505 9.07707Z" fill="#EB232D"/>
<path d="M21.0352 17.5281C20.9187 17.135 20.8622 16.9975 20.4509 16.7227C20.2931 16.6174 19.7623 16.4479 19.48 16.5629C19.4699 16.5664 19.4289 16.5753 19.3991 16.5817C19.3379 16.5948 19.2684 16.6098 19.2227 16.6261C18.3538 16.9348 17.2882 17.7057 16.5832 18.2158L16.4726 18.2958C15.5465 19.0001 14.5464 19.0614 14.4355 19.066L14.3623 19.0691L14.3534 19.1417C14.3255 19.3698 14.28 19.6139 14.1374 19.8528L14.0489 20.0011L14.2194 19.983C14.9582 19.9264 16.0897 19.6411 16.5336 19.3219C16.624 19.2569 16.7286 19.1821 16.8274 19.1115C16.9893 18.9957 17.1292 18.8957 17.1757 18.8609C18.0271 18.223 18.6923 17.7872 19.5662 17.4512C19.6076 17.448 19.6441 17.4417 19.6767 17.4359C19.7333 17.426 19.7823 17.4175 19.8461 17.4265C20.0687 17.4578 20.1506 17.5306 20.1704 17.7152C20.1763 17.7689 20.1441 17.8474 20.0747 17.9483C19.5589 18.6984 18.7629 19.7671 18.0752 20.5168C17.5772 21.0597 17.2527 21.2587 16.7153 21.5884L16.6148 21.6502C16.5672 21.668 16.2605 21.7806 16.0938 21.8287C14.6177 22.2544 12.9443 22.6632 11.5024 22.9499C10.6039 23.1286 10.129 23.0997 9.34233 23.0518C8.50398 23.0009 7.72689 22.8925 6.9041 22.7778L6.61322 22.7373C6.33276 22.6987 6.09961 22.6605 5.85292 22.6201C5.59803 22.5784 5.33455 22.5352 4.99525 22.4876C4.3589 22.3981 3.46048 22.2329 2.81069 22.0859C2.6655 22.053 2.21569 21.9003 2.07363 21.8244C1.75536 21.6549 1.53091 21.0164 1.50482 20.7359C1.43192 19.9528 1.50128 19.5542 1.8142 18.9962C1.96565 18.9775 2.33388 18.9205 2.69128 18.8652C2.92665 18.8288 3.14767 18.7945 3.27334 18.7766C5.53717 18.4527 7.66259 17.753 9.77102 16.6375L9.87738 16.5813L9.79002 16.4986C9.46406 16.1899 9.05752 16.2083 8.66423 16.2264L8.61256 16.2287L8.59709 16.2359C6.75457 17.0921 4.95946 17.6362 3.10884 17.8992C3.0406 17.909 2.94475 17.9209 2.83394 17.9347C2.25006 18.0076 1.7131 18.0804 1.55527 18.1695C0.902137 18.538 0.572134 19.2679 0.600847 20.2806C0.633403 21.4279 0.73491 22.161 1.86839 22.6649C2.68188 23.0266 4.22271 23.2323 5.24235 23.3685C5.55254 23.41 5.82036 23.4457 6.0067 23.4776C7.39931 23.7154 7.86682 23.7729 8.79839 23.8876L9.2111 23.9385C9.59459 23.9864 9.78153 24 10.0342 24C10.1367 24 10.2502 23.9978 10.3918 23.9946C10.8837 23.9837 11.1488 23.9337 11.6549 23.831C13.217 23.5136 14.8391 23.1171 16.3458 22.6844C16.5213 22.6341 16.967 22.4757 17.0044 22.453L17.0622 22.4179C17.7093 22.0255 18.1369 21.7663 18.7237 21.1268C19.3856 20.4054 20.1869 19.3742 20.8149 18.4355C20.9414 18.2462 21.1385 17.8766 21.0352 17.5281Z" fill="#31AE54"/>
<path d="M11.0206 0.000265121C10.9209 -0.00205994 10.6019 0.201059 10.6019 0.201059L0.358172 7.62081C0.353925 7.62374 0.349881 7.62687 0.345736 7.63011L0.339164 7.63506C0.32784 7.64356 0.317022 7.65326 0.309338 7.66165C0.2967 7.67429 0.28477 7.68744 0.273952 7.70098C0.254843 7.72424 0.239677 7.74638 0.227646 7.76872L0.223703 7.77661C0.222186 7.77995 0.220569 7.78338 0.219052 7.78692C0.190541 7.84526 0.175476 7.91138 0.175476 7.97862L0.176082 8.09367L0.178307 8.11248C0.179621 8.11834 0.182351 8.1236 0.183969 8.12946H0.175779V8.13007L0.186193 9.57273C0.180632 9.70245 0.220771 9.81609 0.302362 9.90112C0.413678 10.0174 0.593745 10.0763 0.83771 10.0763L2.77396 10.0695C2.92056 10.0695 3.03976 10.1887 3.03976 10.3353L3.03966 13.5132C3.0343 13.6991 3.01843 14.3307 3.03987 14.6509C3.05129 14.8865 3.06878 15.0381 3.09193 15.1026C3.18434 15.6462 3.37685 16.0539 3.68036 16.349C3.9862 16.6458 4.31065 16.8327 4.6722 16.9206L4.67483 16.9215C4.70475 16.929 4.73407 16.9347 4.76339 16.9399C5.36405 17.0562 5.93368 16.8783 6.43819 16.7202C6.56184 16.6816 6.68903 16.6413 6.81328 16.6074C7.00023 16.5567 7.17514 16.5182 7.34145 16.4911C7.41738 16.478 7.49159 16.4682 7.56469 16.4601C7.75113 16.4406 7.93575 16.4342 8.13421 16.4423C8.29821 16.3583 9.16983 15.9089 9.43047 15.7743C9.26365 15.7001 9.07438 15.6569 8.89422 15.6207C8.69524 15.581 8.50992 15.5614 8.31378 15.5534C8.18598 15.5471 8.05424 15.5465 7.91047 15.5482C7.47552 15.554 7.05209 15.6173 6.57801 15.7473C6.44506 15.7835 6.31504 15.8243 6.17127 15.8692C5.66949 16.0263 5.28812 16.1322 4.94002 16.0677C4.92051 16.0636 4.90089 16.0597 4.88077 16.0545L4.87754 16.0539C4.67705 16.0042 4.48889 15.8916 4.30236 15.7097C4.07528 15.4889 3.95152 15.0863 3.92412 14.482C3.92402 14.4728 3.91553 13.5572 3.92412 13.3971V9.62419C3.92412 9.38205 3.72738 9.1852 3.48452 9.1852L1.24021 9.21341C1.08997 9.21341 1.06651 9.03061 1.0658 8.92162L1.06186 8.37454C1.06186 8.33713 1.06944 8.30023 1.0844 8.26484L1.07389 8.25979C1.07804 8.25301 1.08299 8.24664 1.08683 8.23977C1.09168 8.23158 1.09603 8.22278 1.09927 8.21571C1.11848 8.17799 1.14628 8.14534 1.18005 8.12117L10.8821 1.09887C10.9502 1.05104 10.9751 1.05387 11.0434 1.05357L11.0206 0.000265121Z" fill="#2744A0"/>
</svg>
